<svg width="21" height="21" viewBox="0 0 21 21" fill="none" xmlns="http://www.w3.org/2000/svg">
<path d="M15.9893 20.35H4.36071C1.95651 20.35 0 18.3935 0 15.9893V4.36071C0 1.95651 1.95651 0 4.36071 0H11.6286C12.0141 0 12.3838 0.153144 12.6564 0.425741C12.929 0.698339 13.0821 1.06806 13.0821 1.45357C13.0821 1.83908 12.929 2.2088 12.6564 2.4814C12.3838 2.754 12.0141 2.90714 11.6286 2.90714H4.36071C3.55834 2.90714 2.90714 3.5598 2.90714 4.36071V15.9893C2.90714 16.7902 3.55834 17.4429 4.36071 17.4429H15.9893C16.7917 17.4429 17.4429 16.7902 17.4429 15.9893V11.6286C17.4429 11.2431 17.596 10.8733 17.8686 10.6007C18.1412 10.3281 18.5109 10.175 18.8964 10.175C19.2819 10.175 19.6517 10.3281 19.9243 10.6007C20.1969 10.8733 20.35 11.2431 20.35 11.6286V15.9893C20.35 18.3935 18.3935 20.35 15.9893 20.35ZM11.8699 14.293C11.3611 14.293 10.8684 14.0909 10.5021 13.7246L6.62393 9.84795C6.27509 9.48129 6.08343 8.99278 6.08987 8.48673C6.09631 7.98069 6.30033 7.49721 6.65838 7.13954C7.01642 6.78188 7.50012 6.57837 8.00617 6.57247C8.51222 6.56657 9.00053 6.75874 9.36681 7.10796L11.4251 9.16768L16.4762 1.23844C16.5956 1.00837 16.7599 0.804558 16.9594 0.63907C17.1589 0.473581 17.3896 0.349771 17.6377 0.274958C17.8859 0.200145 18.1466 0.175848 18.4043 0.203504C18.662 0.23116 18.9116 0.310207 19.1382 0.435973C19.3649 0.561738 19.564 0.731669 19.7239 0.935718C19.8837 1.13977 20.001 1.37379 20.0689 1.62396C20.1367 1.87413 20.1537 2.13536 20.1189 2.39221C20.084 2.64906 19.998 2.89632 19.866 3.11936L13.5662 13.2944C13.4207 13.5566 13.2163 13.7815 12.9691 13.9512C12.7219 14.121 12.4387 14.231 12.1417 14.2726L11.8699 14.293Z" fill="#36689E"/>
</svg>
